<svg xmlns="http://www.w3.org/2000/svg" xmlns:xlink="http://www.w3.org/1999/xlink" width="41" height="36" viewBox="0 0 41 36"><defs><path id="a" d="M1043.81 1300.07c1.15.15 2.25.58 3.13 1.42a7.57 7.57 0 0 1 1.94 3.6l.44 1.63c1.1-.54 2.35-.7 3.62-.61 1.8.12 3.73.64 5.76 1.18 2.7.73 5.24 1.37 7.07 2.77a5.47 5.47 0 0 1 2 2.79c.34 1.17.3 2.53-.12 4.09l-2.48 9.25c-1.67 6.25-7.85 10.11-13.82 8.51a10.86 10.86 0 0 1-7.13-6.27c-.19.07-.38.14-.57.19-5.97 1.6-12.15-2.26-13.82-8.51l-2.48-9.25a7.52 7.52 0 0 1-.12-4.08 5.43 5.43 0 0 1 1.99-2.8c1.84-1.4 4.38-2.04 7.08-2.77 2.03-.54 3.95-1.08 5.75-1.19.6-.04 1.19-.03 1.76.05zm-6.98 3.1c-2.7.72-5.06 1.41-6.37 2.42a3.36 3.36 0 0 0-1.29 1.76c-.21.72-.22 1.67.13 2.99l2.49 9.25c1.4 5.25 6.49 8.37 11.33 7.07 4.85-1.3 7.69-6.54 6.29-11.79l-2.49-9.26a5.47 5.47 0 0 0-1.38-2.65 3.24 3.24 0 0 0-1.99-.88 6.1 6.1 0 0 0-1.36-.02c-1.49.1-3.34.56-5.36 1.11zm13.03 5.57l1.42 5.31.05-.01c.1 0 .21.01.3.04l2.45.65a1.01 1.01 0 0 1 .49 1.72c-.27.26-.66.35-1.01.24l-1.86-.5c.22 2.01-.05 3.98-.75 5.75a4.1 4.1 0 0 0 3 3.09c1.6.43 3.19-.1 4.13-1.18.24-.27.6-.4.96-.33a1.02 1.02 0 0 1 .57 1.66 6.12 6.12 0 0 1-6.19 1.81 6.16 6.16 0 0 1-3.68-2.74 10.79 10.79 0 0 1-3.67 3.37 8.85 8.85 0 0 0 5.81 5.12c4.84 1.3 9.93-1.82 11.34-7.07l2.47-9.25c.36-1.32.35-2.27.14-2.99a3.34 3.34 0 0 0-1.28-1.76c-1.32-1.01-3.68-1.7-6.38-2.42a29.95 29.95 0 0 0-5.36-1.12 7.28 7.28 0 0 0-1.04-.01c-.76.05-1.38.26-1.91.62zm-8.68-.13c.17 0 .33.05.48.13l3.07 1.66c.34.16.56.5.58.87.01.37-.18.72-.5.92-.32.19-.72.18-1.04-.01l-3.07-1.66a1 1 0 0 1-.51-1.14 1 1 0 0 1 .99-.77zm-4.01 1.81c.19.33.18.73-.02 1.06l-1.83 2.97c-.19.3-.53.49-.89.48a1.01 1.01 0 0 1-.86-.54c-.17-.31-.16-.7.03-1.01l1.82-2.97c.18-.29.48-.47.81-.49.38-.02.74.17.94.5zm21.81 5.62l2.44.66a1.01 1.01 0 1 1-.52 1.96l-2.45-.66a1.02 1.02 0 0 1-.76-1.09c.06-.51.48-.89.99-.9l.3.03zm-12.46 2.01c.25.27.34.66.22 1.01a.97.97 0 0 1-.78.68c-.36.07-.73-.07-.97-.35a4.08 4.08 0 0 0-4.14-1.18 4.07 4.07 0 0 0-2.98 3.09c-.07.35-.33.64-.67.76s-.72.05-1-.19c-.27-.24-.39-.6-.32-.96a6.1 6.1 0 0 1 4.45-4.66 6.06 6.06 0 0 1 6.19 1.8z"/></defs><desc>Generated with Avocode.</desc><g transform="translate(-1027 -1300)"><use fill="#4a4a4a" xlink:href="#a"/></g></svg>