<?xml version="1.0" encoding="utf-8"?>
<!-- Generator: Adobe Illustrator 18.1.0, SVG Export Plug-In . SVG Version: 6.00 Build 0)  -->
<svg version="1.1" id="Layer_1" xmlns="http://www.w3.org/2000/svg" xmlns:xlink="http://www.w3.org/1999/xlink" x="0px" y="0px"
	 viewBox="0 0 306.1 300.1" enable-background="new 0 0 306.1 300.1" xml:space="preserve">
<g>
	<path fill="#C41415" d="M153.7,56.4c-0.3-7.5-5-13-16.3-16.5c-11.3-3.8-27-5.2-40.8-5.2C77.7,34.6,47,36.9,47,48.5
		c2.5,14.8,66.5,18,129.9,26.1C240.3,82.7,303,96.3,303,134.3l0,0.9c-14-30.8-82.3-38.6-150.5-45.1C76.6,82.8,0,77.3,0,44
		C0,9.8,72.2,0,123,0c82.8,0,140.6,19.3,143.7,54.7C266.7,54.7,211,67.2,153.7,56.4L153.7,56.4z"/>
	<rect x="6.3" y="268" fill="#C41415" width="283.9" height="1.9"/>
	<path stroke="#000000" d="M3.1,171.4c-0.9,20,13.4,28.8,32.8,28.8c29.1,0,31.4-17.9,31.4-23.5c0-13.5-9.7-18.5-21.3-21.7l-20-5
		c-6.7-1.6-12.4-4.8-12.4-12.6c0-12.2,9.9-16.4,20.6-16.4c11.6,0,22,6.3,22.5,18.9h7.8c0.1-16.8-14.2-25.6-30.4-25.6
		c-23.1,0-28.3,15.1-28.3,23.2c0,12.8,8.9,17.4,18.5,19.8l18.3,4.5c7.6,1.8,16.9,5.5,16.9,14.9c0,12-13.1,16.7-21.8,16.7
		c-15,0-27.2-5.2-26.8-22.1H3.1L3.1,171.4z"/>
	<path stroke="#000000" d="M91.1,121.2h-7.3v17.9H73.5v6.1h10.4v40.7c-0.1,10.1,3.2,13.4,12.9,13.4c2.2,0,4.3-0.2,6.4-0.2v-6.2
		c-2.1,0.2-4.1,0.3-6.2,0.3c-5.2-0.3-5.9-3.1-5.9-7.8v-40.1h12.1v-6.1H91.1V121.2L91.1,121.2z"/>
	<path fill-rule="evenodd" clip-rule="evenodd" stroke="#000000" d="M152.8,175.5c0.1,11.6-9.7,18.7-20.7,18.7
		c-6.8,0-13.2-4.5-13.2-11.7c0-11.6,15.3-11.5,27.6-13.7c2-0.3,5.2-0.9,6.1-2.6h0.2V175.5L152.8,175.5z M121.4,157.3
		c0.2-9.7,6.9-13.8,15.9-13.8c8.5,0,15.5,2.4,15.5,12.2c0,6.6-3.3,7.4-9.3,8.1c-15.7,1.8-31.9,2.4-31.9,19.1c0,12,9,17.4,19.9,17.4
		c11.4,0,16.6-4.4,21.7-12.1h0.2c0,6.2,1.2,10.4,8.5,10.4c2,0,3.1-0.1,4.7-0.5v-6.1c-0.6,0.2-1.5,0.5-2.3,0.5
		c-2.9,0-4.3-1.6-4.3-4.4v-31.6c0-15.9-11.4-19.1-21.9-19.1c-13.6,0-23.4,6-24.1,19.9H121.4L121.4,157.3z"/>
	<path fill-rule="evenodd" clip-rule="evenodd" stroke="#000000" d="M199.5,191.7c-13.4,0-19.6-11.6-19.6-23.6
		c0-12.3,5.8-24.6,19.6-24.6c13.7,0,19.1,13,19.1,24.6C218.7,180.2,212.1,191.7,199.5,191.7L199.5,191.7z M225.9,139.1h-7.3v10.3
		h-0.2c-2.9-6.6-10.3-12-18.9-12c-17.2,0-26.8,13.6-26.8,29.9c0,16.9,7.8,30.5,26.8,30.5c8.5,0,15.5-5,18.9-12.2h0.2v8.1
		c0,14.5-5.8,22.5-19.1,22.5c-8.1,0-15.8-3.1-17.4-11.9h-7.3c1,12.7,12.8,18,24.6,18c19.5,0,26.3-10.8,26.4-28.6V139.1L225.9,139.1z
		"/>
	<path fill-rule="evenodd" clip-rule="evenodd" stroke="#000000" d="M290.9,170.7c0.6-16.7-7-33.4-26.1-33.4
		c-18.9,0-26.8,15.8-26.8,31.4c0,16.9,7.9,31.4,26.8,31.4c15,0,22.8-7.8,25.9-21.3h-7.3c-2.3,9-8.1,15.2-18.7,15.2
		c-13.9,0-19.5-12.8-19.6-23.4H290.9L290.9,170.7z M245.1,164.6c1.2-10.8,7.7-21.2,19.6-21.2c11.7,0,18.5,10.2,18.9,21.2H245.1
		L245.1,164.6z"/>
	<polygon stroke="#000000" points="6.3,254.1 18.2,254.1 18.2,252.2 8.6,252.2 8.6,246.3 17.5,246.3 17.5,244.4 8.6,244.4 
		8.6,238.9 18.1,238.9 18.1,237 6.3,237 6.3,254.1 	"/>
	<polygon stroke="#000000" points="28.6,254.1 30.8,254.1 30.8,240.4 30.8,240.4 39.8,254.1 42.3,254.1 42.3,237 40.1,237 
		40.1,250.9 40,250.9 31,237 28.6,237 28.6,254.1 	"/>
	<polygon stroke="#000000" points="57.5,254.1 59.8,254.1 59.8,238.9 65.5,238.9 65.5,237 51.8,237 51.8,238.9 57.5,238.9 
		57.5,254.1 	"/>
	<polygon stroke="#000000" points="75.1,254.1 87,254.1 87,252.2 77.4,252.2 77.4,246.3 86.3,246.3 86.3,244.4 77.4,244.4 
		77.4,238.9 86.9,238.9 86.9,237 75.1,237 75.1,254.1 	"/>
	<path fill-rule="evenodd" clip-rule="evenodd" stroke="#000000" d="M99.7,244.9v-6h5.7c2.1,0,3,1.2,3,2.9c0,2.5-1.8,3-4,3H99.7
		L99.7,244.9z M97.4,254.1h2.3v-7.3h5.6c2.2,0,2.6,1.4,2.9,3.1c0.3,1.7,0,3.5,0.6,4.2h2.5c-1-1.2-0.9-3-1-4.7
		c-0.2-1.7-0.6-3.1-2.6-3.5v0c2.1-0.6,3-2.3,3-4.3c0-2.7-2-4.5-5.2-4.5h-8.1V254.1L97.4,254.1z"/>
	<polygon stroke="#000000" points="125,254.1 127.3,254.1 127.3,238.9 133,238.9 133,237 119.3,237 119.3,238.9 125,238.9 
		125,254.1 	"/>
	<path fill-rule="evenodd" clip-rule="evenodd" stroke="#000000" d="M138.3,254.1h2.4l1.9-5.2h7.2l1.9,5.2h2.5l-6.7-17.1H145
		L138.3,254.1L138.3,254.1z M146.2,239.1L146.2,239.1l2.9,8h-5.8L146.2,239.1L146.2,239.1z"/>
	<polygon stroke="#000000" points="163.7,254.1 165.9,254.1 165.9,237 163.7,237 163.7,254.1 	"/>
	<polygon stroke="#000000" points="177.4,254.1 179.6,254.1 179.6,240.4 179.6,240.4 188.6,254.1 191.1,254.1 191.1,237 188.9,237 
		188.9,250.9 188.9,250.9 179.8,237 177.4,237 177.4,254.1 	"/>
	<polygon stroke="#000000" points="202.5,254.1 204.7,254.1 204.7,239.9 204.7,239.9 210.1,254.1 212,254.1 217.3,239.9 
		217.4,239.9 217.4,254.1 219.6,254.1 219.6,237 216.4,237 211,251.4 205.6,237 202.5,237 202.5,254.1 	"/>
	<polygon stroke="#000000" points="231,254.1 242.9,254.1 242.9,252.2 233.3,252.2 233.3,246.3 242.2,246.3 242.2,244.4 
		233.3,244.4 233.3,238.9 242.9,238.9 242.9,237 231,237 231,254.1 	"/>
	<polygon stroke="#000000" points="253.3,254.1 255.5,254.1 255.5,240.4 255.5,240.4 264.5,254.1 267,254.1 267,237 264.8,237 
		264.8,250.9 264.8,250.9 255.8,237 253.3,237 253.3,254.1 	"/>
	<polygon stroke="#000000" points="282.2,254.1 284.5,254.1 284.5,238.9 290.2,238.9 290.2,237 276.5,237 276.5,238.9 282.2,238.9 
		282.2,254.1 	"/>
	<path fill-rule="evenodd" clip-rule="evenodd" stroke="#000000" d="M88.2,290.9v-6h5.7c2.1,0,3,1.2,3,2.9c0,2.5-1.8,3-4,3H88.2
		L88.2,290.9z M86,300.1h2.3v-7.3h5.6c2.2,0,2.6,1.4,2.9,3.1c0.3,1.7,0,3.5,0.6,4.2h2.5c-1-1.2-0.9-3-1-4.7
		c-0.2-1.7-0.6-3.1-2.6-3.5v0c2.1-0.6,3-2.3,3-4.3c0-2.7-2-4.5-5.2-4.5H86V300.1L86,300.1z"/>
	<path stroke="#000000" d="M124.4,283h-2.3v10.9c0,3-1.6,4.7-4.5,4.7c-3,0-4.8-1.7-4.8-4.7V283h-2.3v10.9c0,4.6,2.6,6.6,7,6.6
		c4.3,0,6.7-2.3,6.7-6.6V283L124.4,283z"/>
	<path stroke="#000000" d="M148.5,288c-0.1-3.8-2.8-5.4-6.3-5.4c-3.1,0-6.2,1.5-6.2,5c0,3.1,2.8,3.9,5.5,4.5c2.7,0.6,5.5,1,5.5,3.4
		c0,2.5-2.3,3.1-4.3,3.1c-2.6,0-5-1.2-5-4.1h-2.2c0,4.2,3.2,6,7.1,6c3.1,0,6.7-1.5,6.7-5.1c0-3.4-2.7-4.3-5.5-4.9
		c-2.8-0.6-5.5-0.9-5.5-3c0-2.2,1.9-2.9,3.8-2.9c2.4,0,4,1.1,4.2,3.5H148.5L148.5,288z"/>
	<path stroke="#000000" d="M172.4,288c-0.1-3.8-2.8-5.4-6.3-5.4c-3.1,0-6.2,1.5-6.2,5c0,3.1,2.8,3.9,5.5,4.5c2.7,0.6,5.5,1,5.5,3.4
		c0,2.5-2.3,3.1-4.3,3.1c-2.6,0-5-1.2-5-4.1h-2.2c0,4.2,3.2,6,7.1,6c3.1,0,6.7-1.5,6.7-5.1c0-3.4-2.7-4.3-5.5-4.9
		c-2.8-0.6-5.5-0.9-5.5-3c0-2.2,1.9-2.9,3.8-2.9c2.4,0,4,1.1,4.2,3.5H172.4L172.4,288z"/>
	<polygon stroke="#000000" points="184.3,300.1 186.6,300.1 186.6,283 184.3,283 184.3,300.1 	"/>
	<path fill-rule="evenodd" clip-rule="evenodd" stroke="#000000" d="M196.7,300.1h2.4l1.9-5.2h7.2l1.9,5.2h2.5l-6.7-17.1h-2.5
		L196.7,300.1L196.7,300.1z M204.6,285L204.6,285l2.9,8h-5.8L204.6,285L204.6,285z"/>
</g>
</svg>
