<?xml version="1.0" encoding="iso-8859-1"?>
<!-- Generator: Adobe Illustrator 18.0.0, SVG Export Plug-In . SVG Version: 6.00 Build 0)  -->
<!DOCTYPE svg PUBLIC "-//W3C//DTD SVG 1.1//EN" "http://www.w3.org/Graphics/SVG/1.1/DTD/svg11.dtd">
<svg version="1.1" id="Capa_1" xmlns="http://www.w3.org/2000/svg" xmlns:xlink="http://www.w3.org/1999/xlink" x="0px" y="0px"
	 viewBox="0 0 309.495 309.495" style="enable-background:new 0 0 309.495 309.495;" xml:space="preserve">
<g>
	<path style="fill-rule:evenodd;clip-rule:evenodd;fill:#FFFFFF;" d="M0,161.115v125.682c0,9.941,8.059,18,18,18h31V143.115H18C8.059,143.115,0,151.174,0,161.115z"/>
	<path style="fill-rule:evenodd;clip-rule:evenodd;fill:#FFFFFF;" d="M242.285,190.533c4.023-4.023,4.023-10.546,0-14.57l-10.318-10.318c-1.52-1.52-1.52-3.983,0-5.503l9.391-9.391
		c1.279-1.279,1.662-3.203,0.969-4.874c-0.692-1.671-2.323-2.761-4.132-2.761H79v161.682h159.196c1.809,0,3.44-1.09,4.132-2.761
		c0.693-1.671,0.31-3.595-0.969-4.874l-9.392-9.392c-1.52-1.52-1.52-3.983,0-5.503l10.318-10.318c4.023-4.023,4.023-10.546,0-14.57
		l-10.318-10.318c-1.52-1.52-1.52-3.983,0-5.503l10.318-10.318c4.023-4.023,4.023-10.546,0-14.57l-10.318-10.318
		c-1.52-1.52-1.52-3.983,0-5.503L242.285,190.533z"/>
	<path style="fill-rule:evenodd;clip-rule:evenodd;fill:#FFFFFF;" d="M306.439,141.585l-12.597-4.209c-2.038-0.681-3.139-2.885-2.458-4.924l4.624-13.84c1.803-5.397-1.11-11.233-6.507-13.036
		l-13.84-4.624c-2.038-0.681-3.139-2.885-2.458-4.924l4.623-13.84c1.803-5.396-1.11-11.233-6.507-13.036l-13.839-4.624
		c-2.038-0.681-3.139-2.885-2.458-4.924l4.624-13.84c1.803-5.397-1.11-11.233-6.507-13.036l-13.84-4.624
		c-2.038-0.681-3.139-2.885-2.458-4.924l4.208-12.597c0.573-1.716,0.057-3.608-1.309-4.794c-1.366-1.186-3.312-1.433-4.93-0.625
		L92.374,76.266l24.383,48.85h121.439c9.122,0,17.271,5.446,20.762,13.872c3.385,8.172,1.69,17.459-4.297,23.896l0.352,0.352
		c2.781,2.781,4.859,6.001,6.238,9.44l45.768-22.845c1.619-0.808,2.591-2.511,2.464-4.316
		C309.356,143.709,308.155,142.159,306.439,141.585z"/>
	<path style="fill-rule:evenodd;clip-rule:evenodd;fill:#FFFFFF;" d="M83.227,125.115L65.531,89.664l-27.737,13.845c-8.064,4.025-11.763,13.284-9.078,21.607H83.227z"/>
</g>
<g>
</g>
<g>
</g>
<g>
</g>
<g>
</g>
<g>
</g>
<g>
</g>
<g>
</g>
<g>
</g>
<g>
</g>
<g>
</g>
<g>
</g>
<g>
</g>
<g>
</g>
<g>
</g>
<g>
</g>
</svg>
